<svg width="32" height="32" viewBox="0 0 32 32" fill="none" xmlns="http://www.w3.org/2000/svg">
  <defs>
    <linearGradient id="gradient" x1="0%" y1="0%" x2="100%" y2="100%">
      <stop offset="0%" style="stop-color:#10B981;stop-opacity:1" />
      <stop offset="100%" style="stop-color:#06B6D4;stop-opacity:1" />
    </linearGradient>
  </defs>
  <circle cx="16" cy="16" r="15" fill="url(#gradient)" />
  <path d="M16 24c-.5 0-.9-.2-1.3-.5L11 20.1c-1.7-1.7-1.7-4.5 0-6.2.8-.8 1.9-1.3 3.1-1.3s2.3.5 3.1 1.3l.1.1.1-.1c.8-.8 1.9-1.3 3.1-1.3s2.3.5 3.1 1.3c1.7 1.7 1.7 4.5 0 6.2L17.3 23.5c-.4.3-.8.5-1.3.5z" fill="white" />
  <path d="M22 16h2m-3-2l1 2-1 2m-2-4l1.2 2-1.2 2" stroke="white" stroke-width="1" stroke-linecap="round" stroke-linejoin="round" opacity="0.8" />
</svg>