<svg width="192" height="192" viewBox="0 0 192 192" fill="none" xmlns="http://www.w3.org/2000/svg">
  <defs>
    <linearGradient id="gradient" x1="0%" y1="0%" x2="100%" y2="100%">
      <stop offset="0%" style="stop-color:#10B981;stop-opacity:1" />
      <stop offset="100%" style="stop-color:#06B6D4;stop-opacity:1" />
    </linearGradient>
  </defs>
  
  <!-- Background Circle -->
  <circle cx="96" cy="96" r="88" fill="url(#gradient)" />
  
  <!-- Heart Shape -->
  <path d="M96 140c-2.5 0-4.8-1-6.5-2.8L65 112.7c-8.5-8.5-8.5-22.3 0-30.8 4.1-4.1 9.6-6.4 15.4-6.4s11.3 2.3 15.4 6.4l.2.2.2-.2c4.1-4.1 9.6-6.4 15.4-6.4s11.3 2.3 15.4 6.4c8.5 8.5 8.5 22.3 0 30.8L102.5 137.2c-1.7 1.8-4 2.8-6.5 2.8z" fill="white" />
  
  <!-- Activity Wave -->
  <path d="M130 96h8m-16-8l4 8-4 8m-8-16l4 8-4 8m-8-16l4 8-4 8" stroke="white" stroke-width="3" stroke-linecap="round" stroke-linejoin="round" opacity="0.8" />
  
  <!-- Small Dots -->
  <circle cx="140" cy="70" r="3" fill="white" opacity="0.6" />
  <circle cx="52" cy="122" r="2" fill="white" opacity="0.4" />
  <circle cx="150" cy="130" r="2.5" fill="white" opacity="0.5" />
</svg>